# xmcd
#
# Track frame offsets:
#	150
#	15804
#	28844
#	39841
#	60889
#	78814
#	93982
#	108953
#	123066
#	134392
#	151890
#	173644
#	190294
#	209644
#	230932
#
# Disc length: 3264 seconds
#
# Revision: 1
# Processed by: cddbd v1.5.1PL0 Copyright (c) Steve Scherf et al.
# Submitted via: audiograbber 1.83.01
#
DISCID=b00cbe0f
DTITLE=Graubremse+A.F.Baeder - VOLUME1
DYEAR=1996
DGENRE=music
TTITLE0=The Nits - In the dutch mountains
TTITLE1=Dr. Hook - The cover of the Rolling Stone
TTITLE2=Guy Mitchel - Singin' the blues
TTITLE3=Toto - Don't chain my heart
TTITLE4=Bellamy Brothers - Let your love flow (remix)
TTITLE5=REO Speedwagon - Keep on loving you
TTITLE6=Santana - Black magic woman
TTITLE7=E.L.O. - Hold on tight
TTITLE8=The byrds - Mr. Tambourine man
TTITLE9=Wolf! - Ticket to ride
TTITLE10=Earth, wind and fire - Boogie wonderland
TTITLE11=Men at work - Down under
TTITLE12=REO Speedwagon - Take it on the run (live)
TTITLE13=Wolf! - You've got a friend
TTITLE14=Aretha Franklin - It ain't necessarity so
EXTD=
EXTT0=
EXTT1=
EXTT2=
EXTT3=
EXTT4=
EXTT5=
EXTT6=
EXTT7=
EXTT8=
EXTT9=
EXTT10=
EXTT11=
EXTT12=
EXTT13=
EXTT14=
PLAYORDER=
